<?xml version="1.0" standalone="no"?>
<!DOCTYPE svg PUBLIC "-//W3C//DTD SVG 20010904//EN"
 "http://www.w3.org/TR/2001/REC-SVG-20010904/DTD/svg10.dtd">
<svg version="1.0" xmlns="http://www.w3.org/2000/svg"
 width="198.000000pt" height="198.000000pt" viewBox="0 0 198.000000 198.000000"
 preserveAspectRatio="xMidYMid meet">
<metadata>
Created by potrace 1.14, written by Peter Selinger 2001-2017
</metadata>
<g transform="translate(0.000000,198.000000) scale(0.100000,-0.100000)"
fill="#000000" stroke="none">
<path d="M905 1657 c0 -115 -4 -211 -9 -214 -5 -3 -99 -6 -210 -6 -113 0 -204
-4 -207 -10 -4 -5 -3 -24 1 -42 4 -18 4 -39 -1 -46 -4 -7 -5 -17 -2 -23 3 -5
6 -21 7 -35 l1 -26 203 -2 c112 -1 207 -4 210 -8 4 -4 7 -93 8 -198 1 -106 2
-197 3 -202 1 -8 134 -13 174 -6 4 0 7 93 7 206 l0 205 38 1 c20 0 111 0 201
1 91 0 170 2 175 4 10 4 11 46 7 160 -1 21 -3 22 -211 20 l-210 -1 0 217 0
217 -93 -1 -93 -2 1 -209z"/>
<path d="M49 1183 c5 -10 29 -39 53 -65 24 -26 61 -69 83 -95 22 -25 49 -57
60 -69 11 -12 34 -39 50 -59 17 -19 44 -51 60 -69 52 -57 88 -99 145 -166 30
-36 61 -72 70 -81 8 -9 35 -40 60 -69 25 -29 55 -65 68 -78 12 -14 41 -48 65
-75 23 -28 53 -62 67 -78 14 -15 38 -42 53 -61 97 -115 110 -126 129 -115 10
7 18 17 18 23 0 6 10 20 23 31 19 18 64 68 127 142 11 13 20 29 20 34 0 6 3 8
6 5 3 -4 31 24 62 60 31 37 61 72 67 78 37 40 142 160 164 187 14 18 37 45 51
60 14 14 43 47 65 73 22 26 55 62 73 80 18 19 30 34 26 34 -3 0 7 13 22 28 37
36 124 133 124 138 0 2 18 22 40 44 22 22 40 45 40 50 0 6 5 10 12 10 6 0 8 3
4 7 -4 4 -71 7 -149 8 -140 0 -167 -6 -167 -35 0 -6 -5 -8 -10 -5 -6 3 -10 2
-10 -4 0 -16 -46 -61 -55 -53 -5 4 -5 1 -1 -5 4 -8 -7 -26 -29 -45 -19 -18
-35 -36 -35 -40 0 -4 -14 -21 -30 -36 -16 -16 -30 -35 -30 -41 0 -7 -4 -9 -10
-6 -5 3 -10 3 -10 -2 0 -4 -14 -22 -30 -40 -17 -18 -30 -37 -30 -44 0 -7 -3
-9 -6 -6 -4 3 -19 -10 -35 -31 -15 -20 -45 -56 -66 -79 -21 -23 -60 -68 -88
-100 -27 -31 -60 -68 -72 -81 -13 -12 -23 -25 -23 -28 0 -2 -16 -22 -36 -43
l-37 -39 -28 26 c-16 14 -29 28 -29 32 0 4 -19 28 -42 53 -24 25 -50 54 -58
65 -8 11 -35 42 -60 69 -25 28 -63 71 -85 97 -61 73 -108 127 -130 152 -11 13
-40 46 -65 75 -25 29 -55 63 -67 75 -13 12 -23 24 -23 27 0 3 -19 26 -43 51
l-42 46 -143 0 c-133 0 -142 -1 -133 -17z"/>
</g>
</svg>
